<svg xmlns="http://www.w3.org/2000/svg" viewBox="0 0 10.11 25.56"><g id="レイヤー_2" data-name="レイヤー 2"><g id="レイヤー_1-2" data-name="レイヤー 1"><path d="M6.48,20.41c0,2.45.11,2.88.43,3.35s.76.68,2.84.86c.29,0,.36.11.36.47s-.07.47-.36.47c-1.43-.08-3.31-.15-4.78-.15s-3.21.07-4.5.15c-.22,0-.29-.08-.29-.47s.07-.43.29-.47c1.91-.14,2.37-.43,2.63-.86.36-.61.46-1.15.46-4.72V6.41c0-3.67-.07-4-.43-4.54S2.45,1.19.29,1C0,1,0,.9,0,.58,0,.07.07,0,.29,0,1.69.07,3.6.18,5,.18S8.24.07,9.58,0c.28,0,.36.07.36.58,0,.32-.08.39-.36.43-1.77.18-2.31.36-2.63.86S6.48,3,6.48,6.41Z"/></g></g></svg>