<svg xmlns="http://www.w3.org/2000/svg" viewBox="0 0 19.83 25.56"><g id="レイヤー_2" data-name="レイヤー 2"><g id="レイヤー_1-2" data-name="レイヤー 1"><path d="M3.13,6.41c0-3.39,0-3.82-.39-4.54S2.05,1.15.29,1C.07.94,0,.9,0,.54S.07,0,.29,0C1.69.11,3.1.18,4.43.18S7.27.11,8.6,0C8.89,0,9,.07,9,.54S8.89.94,8.6,1c-1.54.18-1.87.33-2.23.9S5.94,3,5.94,6.41V19.08c0,3.56,0,4,.4,4.68s.68.75,2.3.9c.25,0,.32.1.32.46s-.07.44-.32.44c-1.44-.08-2.74-.15-4.21-.15s-2.81.07-4.11.15c-.25,0-.32-.08-.32-.44s.07-.43.32-.46c1.59-.15,2-.33,2.38-.9s.43-1.23.43-4.68ZM14,6.41c0-3.39,0-3.82-.39-4.54s-.69-.72-2.45-.9c-.22,0-.29-.07-.29-.43s.07-.54.29-.54c1.4.11,2.81.18,4.14.18S18.14.11,19.47,0c.29,0,.36.07.36.54s-.07.4-.36.43c-1.54.18-1.87.33-2.23.9S16.81,3,16.81,6.41V19.08c0,3.56,0,4,.4,4.68s.68.75,2.3.9c.25,0,.32.1.32.46s-.07.44-.32.44c-1.44-.08-2.74-.15-4.21-.15s-2.81.07-4.11.15c-.25,0-.32-.08-.32-.44s.07-.43.32-.46c1.59-.15,2-.33,2.38-.9s.43-1.23.43-4.68Z"/></g></g></svg>