<svg xmlns="http://www.w3.org/2000/svg" viewBox="0 0 73.15 25.56"><g id="レイヤー_2" data-name="レイヤー 2"><g id="レイヤー_1-2" data-name="レイヤー 1"><path d="M3,6.41C3,3,3,2.59,2.56,1.87S1.87,1.12.29,1C.07.94,0,.9,0,.54S.07,0,.29,0c1.37.11,2.59.18,4,.18S6.88.11,8.24,0c.26,0,.33.07.33.54S8.5.94,8.24,1c-1.4.15-1.69.29-2.08.9s-.44,1.41-.44,4.54V19.08c0,3.56,0,4,.4,4.68s.61.75,2.05.9c.25,0,.33.1.33.46s-.08.44-.33.44c-1.47-.08-2.45-.15-3.92-.15s-2.63.07-4,.15c-.22,0-.29-.08-.29-.44s.07-.43.29-.46c1.55-.15,1.87-.33,2.23-.9S3,22.64,3,19.08Zm9.68,0c0-3.39,0-3.82-.39-4.54S11.55,1.12,10,1C9.75.94,9.68.9,9.68.54S9.75,0,10,0c1.37.11,2.59.18,4,.18s2.63-.07,4-.18c.25,0,.32.07.32.54s-.07.4-.32.43c-1.41.15-1.7.29-2.09.9s-.43,1.41-.43,4.54V19.08c0,3.56,0,4,.39,4.68s.61.75,2.05.9c.26,0,.33.1.33.46s-.07.44-.33.44c-1.47-.08-2.44-.15-3.92-.15s-2.63.07-4,.15c-.22,0-.29-.08-.29-.44s.07-.43.29-.46c1.55-.15,1.87-.33,2.23-.9s.43-1.12.43-4.68Zm9.69,0c0-3.39,0-3.82-.4-4.54s-.68-.75-2.27-.9c-.21,0-.28-.07-.28-.43s.07-.54.28-.54c1.37.11,2.6.18,4,.18s2.63-.07,4-.18c.25,0,.32.07.32.54s-.07.4-.32.43c-1.41.15-1.69.29-2.09.9s-.43,1.41-.43,4.54V19.08c0,3.56,0,4,.39,4.68s.62.75,2.06.9c.25,0,.32.1.32.46s-.07.44-.32.44c-1.48-.08-2.45-.15-3.93-.15s-2.62.07-4,.15c-.21,0-.28-.08-.28-.44s.07-.43.28-.46c1.55-.15,1.88-.33,2.24-.9s.43-1.12.43-4.68Z"/><path d="M44.53,13.86h-7V12.35h7Z"/><path d="M69.51,20.41c0,2.45.11,2.88.44,3.35s.75.68,2.84.86c.29,0,.36.11.36.47s-.07.47-.36.47c-1.44-.08-3.31-.15-4.79-.15s-3.2.07-4.5.15c-.21,0-.29-.08-.29-.47s.08-.43.29-.47c1.91-.14,2.38-.43,2.63-.86.36-.61.47-1.15.47-4.72V6.41c0-3.67-.07-4-.43-4.54s-.69-.68-2.85-.86C63.07,1,63,.9,63,.58c0-.51.08-.58.29-.58,1.41.07,3.31.18,4.68.18S71.28.07,72.61,0c.29,0,.36.07.36.58,0,.32-.07.39-.36.43-1.76.18-2.3.36-2.63.86S69.51,3,69.51,6.41Z"/></g></g></svg>