<svg xmlns="http://www.w3.org/2000/svg" viewBox="0 0 33.58 26.17"><g id="レイヤー_2" data-name="レイヤー 2"><g id="レイヤー_1-2" data-name="レイヤー 1"><path d="M2.92,6.41c0-3.39,0-3.82-.4-4.54S1.91,1.12.29,1C.07.94,0,.9,0,.54S.07,0,.29,0c1.37.11,2.55.18,4,.18S6.73.11,8.1,0c.25,0,.32.07.32.54S8.35.94,8.1,1c-1.3.15-1.55.29-1.95.9s-.43,1.37-.43,4.54V19.08c0,3.71,0,4.07.4,4.68s.68.75,2.12.9c.25,0,.33.1.33.46s-.08.44-.33.44c-1.51-.08-2.52-.15-4-.15s-2.63.07-4,.15c-.22,0-.29-.08-.29-.44s.07-.43.29-.46c1.54-.15,1.83-.33,2.19-.9s.44-1.3.44-4.68ZM20.34,17.28c.79,2.27,1.22,3.49,1.58,4.64.47-1.29.9-2.45,1.62-4.68L27.1,6.44a18.8,18.8,0,0,0,.94-4c0-.9-.58-1.29-2.56-1.44-.25,0-.32-.07-.32-.43s.07-.54.32-.54c1.44.11,3.06.18,4.32.18A29.91,29.91,0,0,0,33.26,0c.25,0,.32.07.32.54,0,.32-.07.4-.32.43a3.77,3.77,0,0,0-2.38.9A16.44,16.44,0,0,0,28.8,6.44L24.37,19c-.61,1.66-1.05,2.85-1.37,3.85s-.61,1.77-.94,2.67a7,7,0,0,1-1.54.61.27.27,0,0,1-.29-.22c-.65-2.19-1.3-4.06-2.27-6.91L13.61,6.44A23.56,23.56,0,0,0,11.7,1.87,2.43,2.43,0,0,0,9.79,1C9.54.94,9.47.9,9.47.54S9.54,0,9.79,0A31,31,0,0,0,13.5.18,40.66,40.66,0,0,0,17.67,0c.26,0,.33.07.33.54,0,.32-.07.4-.33.43-1.69.22-2.08.51-2.08,1.44a14.35,14.35,0,0,0,1,4Z"/></g></g></svg>