<svg xmlns="http://www.w3.org/2000/svg" viewBox="0 0 25.88 26.17"><g id="レイヤー_2" data-name="レイヤー 2"><g id="レイヤー_1-2" data-name="レイヤー 1"><path d="M12,17.28c.83,2.23,1.26,3.49,1.66,4.61.43-1.26.86-2.45,1.73-4.65l3.85-10.8a13.82,13.82,0,0,0,1-4c0-.9-.47-1.22-2.88-1.4-.26,0-.33-.11-.33-.43,0-.51.07-.58.33-.58,1.51.07,3.27.14,4.53.14s2.34,0,3.6-.14c.29,0,.36.07.36.58,0,.32-.07.39-.36.43-1.44.14-1.83.36-2.34.86s-1,1.51-2.19,4.57L16.2,19c-1.3,3.39-1.8,4.72-2.38,6.48-1.36.61-1.47.65-1.62.65s-.14,0-.21-.22c-.72-2.23-1.37-4.06-2.41-6.91L4.9,6.44A24.75,24.75,0,0,0,2.81,1.87C2.38,1.33,1.8,1.08.36,1,.07,1,0,.9,0,.58,0,.07.07,0,.36,0c1.4.07,3.1.14,4.57.14S8.32.07,9.61,0c.29,0,.36.07.36.58C10,.9,9.9,1,9.61,1c-2.48.25-2.84.54-2.84,1.33S7,3.71,8,6.41Z"/></g></g></svg>